<?xml version="1.0" encoding="UTF-8"?>
<svg id="Layer_2" data-name="Layer 2" xmlns="http://www.w3.org/2000/svg" viewBox="0 0 259.26 94.28">
  <defs>
    <style>
      .cls-1 {
        letter-spacing: 0em;
      }

      .cls-2 {
        letter-spacing: -.03em;
      }

      .cls-3, .cls-4, .cls-5 {
        fill: #fff;
      }

      .cls-4 {
        font-family: MyriadPro-Semibold, 'MyriadPro Semibold';
        font-size: 17.35px;
        font-weight: 600;
      }

      .cls-5 {
        font-family: TheSansArab-Bold, 'TheSansArab Bold';
        font-size: 23.13px;
        font-weight: 700;
      }

      .cls-6 {
        letter-spacing: 0em;
      }

      .cls-7 {
        letter-spacing: 0em;
      }

      .cls-8 {
        letter-spacing: 0em;
      }

      .cls-9 {
        fill: none;
        stroke: #fff;
        stroke-miterlimit: 10;
        stroke-width: 1.94px;
      }
    </style>
  </defs>
  <g id="Layer_1-2" data-name="Layer 1">
    <g>
      <text class="cls-5" transform="translate(81.39 60.73)"><tspan class="cls-2" x="0" y="0">C</tspan><tspan x="8.89" y="0">ybersecurity</tspan></text>
      <text class="cls-4" transform="translate(81.39 80.35)"><tspan class="cls-8" x="0" y="0">A</tspan><tspan class="cls-7" x="10.55" y="0">nnual </tspan><tspan class="cls-1" x="55.5" y="0">G</tspan><tspan class="cls-6" x="66.85" y="0">a</tspan><tspan x="75.11" y="0">thering </tspan></text>
      <text class="cls-4" transform="translate(218.38 80.35)"><tspan x="0" y="0">2023</tspan></text>
      <text class="cls-4" transform="translate(255.58 80.35)"><tspan x="0" y="0"> </tspan></text>
      <path class="cls-9" d="m63.55,19.8c7.78,1.48,14.98,5.74,20.02,12.31"/>
      <path class="cls-3" d="m63.22,23.45c-1.99-.28-3.38-2.12-3.1-4.11.28-1.99,2.12-3.38,4.11-3.1,1.99.28,3.38,2.12,3.1,4.11-.28,1.99-2.12,3.38-4.11,3.1"/>
      <path class="cls-3" d="m80.46,34.05c1.15,1.65,3.42,2.06,5.07.91s2.06-3.42.91-5.07c-1.15-1.65-3.42-2.06-5.07-.91s-2.06,3.42-.91,5.07"/>
      <polyline class="cls-9" points="58.58 35.31 40.01 35.31 40.01 65.48 58.58 65.48"/>
      <path class="cls-3" d="m58.43,32.4c1.61,0,2.91,1.3,2.91,2.91s-1.3,2.91-2.91,2.91-2.91-1.3-2.91-2.91,1.3-2.91,2.91-2.91"/>
      <path class="cls-3" d="m58.43,68.4c1.61,0,2.91-1.3,2.91-2.91s-1.3-2.91-2.91-2.91-2.91,1.3-2.91,2.91,1.3,2.91,2.91,2.91"/>
      <polyline class="cls-9" points="52.27 80.57 70.84 80.57 70.84 50.39 52.27 50.39"/>
      <path class="cls-3" d="m52.42,83.48c-1.61,0-2.91-1.3-2.91-2.91s1.3-2.91,2.91-2.91,2.91,1.3,2.91,2.91-1.3,2.91-2.91,2.91"/>
      <path class="cls-3" d="m52.42,47.48c-1.61,0-2.91,1.3-2.91,2.91s1.3,2.91,2.91,2.91,2.91-1.3,2.91-2.91-1.3-2.91-2.91-2.91"/>
      <path class="cls-9" d="m73.87,90.28c-4.56,1.96-9.58,3.04-14.85,3.04-20.81,0-37.68-16.87-37.68-37.68,0-17,11.26-31.38,26.73-36.07"/>
      <path class="cls-3" d="m72.13,87.05c1.82-.86,3.99-.09,4.85,1.72.86,1.81.09,3.99-1.72,4.85-1.82.86-3.99.09-4.85-1.72-.86-1.82-.09-3.99,1.72-4.85"/>
      <path class="cls-3" d="m48.82,23.16c1.95-.51,3.11-2.49,2.61-4.44-.51-1.95-2.49-3.11-4.44-2.61s-3.11,2.49-2.61,4.44c.51,1.95,2.49,3.11,4.44,2.61"/>
      <path class="cls-9" d="m11.61,52.16c1.77-24.17,21.94-43.22,46.55-43.22,14.29,0,27.08,6.42,35.64,16.54"/>
      <path class="cls-3" d="m15.28,52.13c-.09,2.01-1.78,3.57-3.79,3.48-2.01-.09-3.57-1.78-3.48-3.79.09-2.01,1.78-3.57,3.79-3.48,2.01.09,3.57,1.78,3.48,3.79"/>
      <path class="cls-3" d="m90.83,27.6c1.25,1.57,3.54,1.83,5.12.58,1.57-1.25,1.83-3.54.58-5.12-1.25-1.57-3.54-1.83-5.12-.58s-1.83,3.54-.58,5.12"/>
      <path class="cls-9" d="m24.08,87.5c-5.52-5.9-9.53-13.24-11.4-21.39"/>
      <path class="cls-3" d="m26.53,84.79c1.42,1.42,1.42,3.73,0,5.15-1.42,1.42-3.73,1.42-5.15,0-1.42-1.42-1.42-3.73,0-5.15,1.42-1.42,3.73-1.42,5.15,0"/>
      <path class="cls-3" d="m16.3,65.58c-.39-1.97-2.3-3.26-4.28-2.87-1.97.39-3.26,2.3-2.87,4.28.39,1.97,2.3,3.26,4.28,2.87,1.97-.39,3.26-2.3,2.87-4.28"/>
      <path class="cls-9" d="m3.65,59.43c-.09-1.26-.13-2.53-.13-3.81C3.52,25.43,27.99.97,58.17.97c7.22,0,14.11,1.4,20.41,3.94"/>
      <path class="cls-3" d="m7.26,58.89c.2,2-1.26,3.78-3.26,3.98-2,.2-3.78-1.26-3.98-3.26s1.26-3.78,3.27-3.98c2-.2,3.78,1.26,3.98,3.26"/>
      <path class="cls-3" d="m76.96,8.19c1.84.8,3.99-.05,4.79-1.89.8-1.84-.05-3.99-1.89-4.79-1.84-.8-3.99.05-4.79,1.89-.8,1.84.05,3.99,1.89,4.79"/>
    </g>
  </g>
</svg>