<?xml version="1.0" encoding="UTF-8"?>
<svg id="Layer_2" data-name="Layer 2" xmlns="http://www.w3.org/2000/svg" viewBox="0 0 176.91 39.1">
  <defs>
    <style>
      .cls-1 {
        fill: #fff;
      }
    </style>
  </defs>
  <g id="Layer_1-2" data-name="Layer 1">
    <g>
      <polygon class="cls-1" points="11.77 15.64 27.36 15.64 27.36 35.19 11.77 35.19 11.77 39.1 31.28 39.1 31.28 11.73 11.77 11.73 11.77 15.64"/>
      <polygon class="cls-1" points="19.51 23.46 3.92 23.46 3.92 3.91 19.51 3.91 19.51 0 0 0 0 27.37 19.51 27.37 19.51 23.46"/>
      <g>
        <path class="cls-1" d="m48.21,4.95c.29,0,.55-.11.76-.32.21-.21.32-.47.32-.76s-.11-.54-.32-.75c-.21-.21-.47-.31-.76-.31s-.54.1-.75.31c-.21.21-.31.45-.31.75s.1.55.31.76c.21.21.45.32.75.32"/>
        <path class="cls-1" d="m45.75,4.95c.29,0,.55-.11.76-.32.21-.21.32-.47.32-.76s-.11-.54-.32-.75c-.21-.21-.47-.31-.76-.31s-.54.1-.75.31c-.21.21-.31.45-.31.75s.1.55.31.76c.21.21.45.32.75.32"/>
        <path class="cls-1" d="m54.62,15.07c-.29,0-.55.11-.76.32-.21.21-.32.47-.32.76s.11.54.32.75c.21.21.47.31.76.31s.54-.1.75-.31c.2-.21.31-.45.31-.75s-.1-.55-.31-.76c-.21-.21-.45-.32-.75-.32"/>
        <path class="cls-1" d="m53.56,10.52c0,.48-.24.73-.73.73h-2.86v-5.19h-3.15c-.78,0-1.42.23-1.91.68-.59.53-.88,1.24-.88,2.13v1.65c0,.78.22,1.42.66,1.94.53.6,1.25.9,2.18.9h6.01c.76,0,1.4-.23,1.91-.68.59-.53.88-1.23.88-2.11v-4.51h-2.11v4.47Zm-5.68.73h-1.08c-.44,0-.66-.23-.66-.68v-1.65c0-.22.06-.4.18-.54.12-.14.28-.21.48-.21h1.08v3.08Z"/>
        <path class="cls-1" d="m52.15,15.07c-.29,0-.55.11-.76.32-.21.21-.32.47-.32.76s.11.54.32.75c.21.21.47.31.76.31s.54-.1.75-.31c.2-.21.31-.45.31-.75s-.1-.55-.31-.76c-.21-.21-.45-.32-.75-.32"/>
        <path class="cls-1" d="m60.2,6.05h-1.23v2.11h1.06c.59,0,1.04.17,1.36.51.34.34.51.81.51,1.41,0,.43-.07.73-.21.9-.14.18-.38.26-.71.26h-3.26v2.11h3.43c.86,0,1.55-.26,2.07-.77.56-.56.84-1.36.84-2.4s-.24-1.98-.73-2.68c-.66-.97-1.7-1.45-3.12-1.45"/>
        <path class="cls-1" d="m98.54,10.52c0,.48-.24.73-.7.73h-1.74v-5.19l-2.11.43v4.76h-1.74v-5.19l-2.11.43v4.76h-1.76v-5.19l-2.09.43v4.76h-6.73c.62-.78,1.22-1.36,1.83-1.74v-.18c0-.94-.35-1.73-1.06-2.38-.75-.67-1.65-1.01-2.71-1.01-.91,0-1.72.26-2.42.77-.89.65-1.34,1.5-1.34,2.55v.24c.56.38,1.17.96,1.83,1.74h-4v-5.19h-3.1c-.82,0-1.49.24-2,.73-.57.54-.86,1.24-.86,2.09v1.69c0,.72.22,1.33.66,1.85.54.63,1.28.95,2.2.95h1.01v.15c0,.57-.27,1.01-.81,1.32-.56.34-1.33.51-2.31.51h-.2l1.34,1.87c1.41-.06,2.44-.4,3.1-1.03.64-.6.97-1.51.97-2.73v-.09h4.73c.44,0,.84-.12,1.21-.37.38.25.78.37,1.21.37h18.98c.82,0,1.49-.26,2-.77.54-.53.81-1.2.81-2.02V3.08h-2.09v7.44Zm-28.97.73h-1.06c-.44,0-.66-.24-.66-.73v-1.67c0-.45.22-.68.66-.68h1.06v3.08Zm8.05-1.1c-.48-.56-.95-.98-1.41-1.28.41-.56.88-.84,1.41-.84.56,0,1.02.28,1.39.84-.5.34-.96.76-1.39,1.28"/>
        <path class="cls-1" d="m116.98,4.95c.29,0,.54-.11.75-.32.21-.21.31-.47.31-.76s-.1-.54-.31-.75c-.21-.21-.45-.31-.75-.31s-.55.1-.76.31c-.21.21-.32.45-.32.75s.11.55.32.76c.21.21.47.32.76.32"/>
        <path class="cls-1" d="m114.51,4.95c.29,0,.54-.11.75-.32.21-.21.31-.47.31-.76s-.1-.54-.31-.75c-.2-.21-.45-.31-.75-.31s-.55.1-.76.31c-.21.21-.32.45-.32.75s.11.55.32.76c.21.21.47.32.76.32"/>
        <path class="cls-1" d="m119.73,10.45c0,.53-.23.79-.68.79h-6.62c-.47,0-.7-.26-.7-.79v-3.06l-2.09,1.36v1.8c0,.81.23,1.46.7,1.96.51.56,1.23.84,2.16.84h6.56c.78,0,1.42-.23,1.94-.68.57-.51.86-1.22.86-2.11v-4.51h-2.11v4.4Z"/>
        <path class="cls-1" d="m130.5,10.56v-1.69c0-.21.06-.37.19-.51.12-.13.29-.2.49-.2h3.19v-2.11h-3.12c-.78,0-1.43.23-1.96.68-.6.53-.9,1.24-.9,2.13v1.69c0,.32.04.55.11.68h-1.8c-.47,0-.7-.23-.7-.7V3.08h-2.09v7.54c0,.69.2,1.29.62,1.8.5.62,1.16.92,1.98.92h8.89v-2.11h-4.2c-.45,0-.68-.23-.68-.68"/>
        <path class="cls-1" d="m148.17,4.95c.29,0,.54-.11.75-.32.21-.21.31-.47.31-.76s-.1-.54-.31-.75c-.21-.21-.45-.31-.75-.31s-.55.1-.76.31c-.21.21-.32.45-.32.75s.11.55.32.76c.21.21.47.32.76.32"/>
        <path class="cls-1" d="m145.97,6.84c-.51.53-.77,1.2-.77,2.02v2.38h-2.16v-5.19h-3.1c-.82,0-1.49.24-2,.73-.57.54-.86,1.24-.86,2.09v1.69c0,.72.22,1.33.66,1.85.54.63,1.28.95,2.2.95h1.01v.15c0,.57-.27,1.01-.81,1.32-.56.34-1.33.51-2.31.51h-.2l1.34,1.87c1.41-.06,2.44-.4,3.1-1.03.65-.6.97-1.51.97-2.73v-.09h5.3c.79,0,1.44-.23,1.94-.68.59-.51.88-1.22.88-2.11v-4.51h-3.12c-.87,0-1.55.26-2.07.79m-5.04,4.4h-1.06c-.44,0-.66-.24-.66-.73v-1.67c0-.45.22-.68.66-.68h1.06v3.08Zm8.12-.79c0,.53-.23.79-.7.79h-1.03v-2.33c0-.5.22-.75.66-.75h1.08v2.29Z"/>
        <path class="cls-1" d="m170.34,10.52c0,.48-.23.73-.7.73h-1.74v-2.46c0-.81-.24-1.47-.73-1.98-.56-.57-1.3-.86-2.24-.86-.78,0-1.43.19-1.96.57-.67.51-1.01,1.27-1.01,2.27v2.46h-2.42v-1.19c0-1.06-.27-1.94-.81-2.66-.67-.89-1.67-1.34-2.99-1.34h-1.28v2.11h1.1c1.25,0,1.87.59,1.87,1.78v1.3h-4.22v2.11h8.89c.19.57.53,1.02,1.01,1.34.51.34,1.12.51,1.83.51s1.3-.16,1.8-.49c.5-.33.84-.78,1.01-1.35h1.87c.82,0,1.49-.26,2-.77.54-.53.81-1.2.81-2.02V3.08h-2.09v7.44Zm-4.53,1.85c0,.5-.29.75-.88.75s-.88-.25-.88-.75v-3.59c0-.5.29-.75.88-.75s.88.25.88.75v3.59Z"/>
        <polygon class="cls-1" points="174.3 3.08 174.3 14.32 176.59 13.36 176.59 3.08 174.3 3.08"/>
        <polygon class="cls-1" points="102.6 14.32 104.89 13.35 104.89 3.08 102.6 3.08 102.6 14.32"/>
        <path class="cls-1" d="m44.08,36.39l.33-2.03c.91.4,1.82.6,2.72.6,1.02,0,1.53-.38,1.53-1.13,0-.31-.12-.56-.35-.76-.24-.2-.71-.45-1.42-.74-.97-.4-1.65-.77-2.03-1.13-.55-.52-.82-1.19-.82-2.01,0-1.05.4-1.81,1.19-2.3.62-.4,1.47-.6,2.54-.6.99,0,1.88.19,2.68.57l-.38,1.99c-.88-.4-1.67-.6-2.37-.6-.94,0-1.42.3-1.42.91,0,.19.1.37.3.52.2.15.61.36,1.23.63,1.03.43,1.75.83,2.17,1.22.6.56.91,1.25.91,2.08,0,1.15-.36,2.01-1.08,2.59-.63.5-1.51.75-2.63.75-1.22,0-2.26-.18-3.1-.55"/>
        <path class="cls-1" d="m61.86,36.79h-2.43l-.58-1.92h-3.1l-.57,1.92h-2.41l3.36-10.33h2.34l3.38,10.33Zm-3.52-3.78l-1.04-3.63-1.04,3.63h2.08Z"/>
        <path class="cls-1" d="m70.15,33.08v-5.64l2.32-.97v6.81c0,1-.3,1.83-.91,2.48-.72.8-1.82,1.19-3.29,1.19-1.65,0-2.83-.49-3.54-1.48-.44-.62-.66-1.35-.66-2.19v-5.84l2.3-.97v6.61c0,.56.17,1.01.51,1.35.32.35.79.53,1.39.53.68,0,1.18-.22,1.5-.66.25-.32.38-.73.38-1.22"/>
        <path class="cls-1" d="m83.41,27.81c-.68-.9-1.68-1.35-3.01-1.35h-4.77v10.33h4.77c1.33,0,2.33-.45,3.01-1.35.55-.72.82-1.61.82-2.68v-2.28c0-1.06-.27-1.95-.82-2.68m-1.3,5.06c0,1.19-.63,1.79-1.88,1.79h-2.49v-6.08h2.49c1.25,0,1.88.6,1.88,1.79v2.5Z"/>
        <polygon class="cls-1" points="89.85 36.79 87.55 36.79 87.55 27.43 89.85 26.46 89.85 36.79"/>
        <path class="cls-1" d="m114.66,36.79h-2.43l-.58-1.92h-3.1l-.57,1.92h-2.41l3.36-10.33h2.34l3.38,10.33Zm-3.52-3.78l-1.04-3.63-1.04,3.63h2.08Z"/>
        <polygon class="cls-1" points="120.45 36.79 118.18 36.79 118.18 32.72 114.97 26.46 117.42 26.46 119.3 30.58 121.21 26.46 123.64 26.46 120.45 32.72 120.45 36.79"/>
        <polygon class="cls-1" points="136.75 36.79 134.72 36.79 134.72 28.81 132.57 36.79 130.12 36.79 127.99 28.81 127.99 36.79 125.96 36.79 125.96 26.46 129.34 26.46 131.36 34.62 133.61 26.46 136.75 26.46 136.75 36.79"/>
        <polygon class="cls-1" points="146.19 36.79 139.93 36.79 139.93 26.46 146.52 26.46 146.19 28.39 142.23 28.39 142.23 30.55 145.86 30.55 145.55 32.48 142.23 32.48 142.23 34.87 146.52 34.87 146.19 36.79"/>
        <polygon class="cls-1" points="157.69 36.79 155.74 36.79 151.39 30.27 151.39 36.79 149.31 36.79 149.31 26.46 151.26 26.46 155.61 32.99 155.61 26.46 157.69 26.46 157.69 36.79"/>
        <polygon class="cls-1" points="165.23 36.79 162.93 36.79 162.93 28.39 160.45 28.39 160.45 26.46 167.91 26.46 167.57 28.39 165.23 28.39 165.23 36.79"/>
        <path class="cls-1" d="m170.09,36.39l.33-2.03c.91.4,1.82.6,2.72.6,1.02,0,1.53-.38,1.53-1.13,0-.31-.12-.56-.35-.76-.24-.2-.71-.45-1.42-.74-.97-.4-1.65-.77-2.03-1.13-.55-.52-.82-1.19-.82-2.01,0-1.05.4-1.81,1.19-2.3.62-.4,1.47-.6,2.54-.6.99,0,1.88.19,2.68.57l-.38,1.99c-.88-.4-1.67-.6-2.37-.6-.94,0-1.42.3-1.42.91,0,.19.1.37.3.52.2.15.61.36,1.23.63,1.03.43,1.75.83,2.17,1.22.6.56.91,1.25.91,2.08,0,1.15-.36,2.01-1.08,2.59-.63.5-1.51.75-2.63.75-1.22,0-2.26-.18-3.1-.55"/>
        <path class="cls-1" d="m103.52,27.15c-.5-.46-1.14-.69-1.92-.69h-4.58v10.33h2.28v-2.99h2.25c.93,0,1.66-.3,2.19-.91.44-.52.66-1.16.66-1.95v-1.66c0-.9-.29-1.61-.88-2.14m-1.24,3.85c0,.46-.22.69-.66.69h-2.5v-3.1h2.5c.21,0,.37.07.49.21.12.14.18.32.18.54v1.66Z"/>
      </g>
    </g>
  </g>
</svg>